999
FreeCAD v0.21 33675 (Git)
  0
SECTION
  2
HEADER
  9
$ACADVER
  1
AC1014
  9
$ACADMAINTVER
 70
     9
  9
$DWGCODEPAGE
  3
ANSI_1252
  9
$TEXTSTYLE
  7
STANDARD
  9
$DIMSTYLE
  2
STANDARD
  9
$DIMTXSTY
  7
STANDARD
  9
$CMLSTYLE
  2
STANDARD
  9
$LUNITS
 70
2
  9
$INSUNITS
 70
4
  9
$PEXTMAX
 10
50
 20
50
 30
50
  9
$PEXTMIN
 10
0
 20
0
 30
0
  9
$HANDSEED
  5
FFFF
  0
ENDSEC
  0
SECTION
  2
CLASSES
  0
CLASS
  1
ACDBDICTIONARYWDFLT
  2
AcDbDictionaryWithDefault
  3
ObjectDBX Classes
 90
        0
280
     0
281
     0
  0
CLASS
  1
XRECORD
  2
AcDbXrecord
  3
ObjectDBX Classes
 90
        0
280
     0
281
     0
  0
CLASS
  1
LWPOLYLINE
  2
AcDbPolyline
  3
ObjectDBX Classes
 90
        0
280
     0
281
     1
  0
ENDSEC
  0
SECTION
  2
TABLES
  0
TABLE
  2
VPORT
  5
20
330
0
100
AcDbSymbolTable
 70
     1
  0
VPORT
  5
21
330
20
100
AcDbSymbolTableRecord
100
AcDbViewportTableRecord
  2
*ACTIVE
 70
     0
  0
ENDTAB
  0
TABLE
  2
LTYPE
  5
22
330
0
100
AcDbSymbolTable
 70
     1
  0
LTYPE
  5
23
330
21
100
AcDbSymbolTableRecord
100
AcDbLinetypeTableRecord
  2
BYBLOCK
 70
     0
  3

 72
    65
 73
     0
 40
0.0
  0
LTYPE
  5
24
330
21
100
AcDbSymbolTableRecord
100
AcDbLinetypeTableRecord
  2
BYLAYER
 70
     0
  3

 72
    65
 73
     0
 40
0.0
  0
LTYPE
  5
25
330
21
100
AcDbSymbolTableRecord
100
AcDbLinetypeTableRecord
  2
CONTINUOUS
 70
     0
  3
Solid line
 72
    65
 73
     0
 40
0.0
  0
ENDTAB
  0
TABLE
  2
LAYER
  5
A20
330
0
100
AcDbSymbolTable
 70
3
  0
LAYER
  5
A21
330
A20
100
AcDbSymbolTableRecord
100
AcDbLayerTableRecord
  2
0
 70
   0
 62
   7
  6
CONTINUOUS
  0
LAYER
  5
A22
330
A20
100
AcDbSymbolTableRecord
100
AcDbLayerTableRecord
  2
none
 70
    0
 62
    7
  6
CONTINUOUS
  0
LAYER
  5
A23
330
A20
100
AcDbSymbolTableRecord
100
AcDbLayerTableRecord
  2
Binder018
 70
    0
 62
    7
  6
CONTINUOUS
  0
ENDTAB
  0
TABLE
  2
STYLE
  5
70
330
0
100
AcDbSymbolTable
 70
     2
  0
STYLE
  5
71
330
70
100
AcDbSymbolTableRecord
100
AcDbTextStyleTableRecord
  2
STANDARD
 70
     0
 40
0.0
 41
1.0
 50
0.0
 71
     0
 42
2.5
  3
arial.ttf
  4

  0
STYLE
  5
72
330
70
100
AcDbSymbolTableRecord
100
AcDbTextStyleTableRecord
  2
ANNOTATIVE
 70
     0
 40
0.0
 41
1.0
 50
0.0
 71
     0
 42
2.5
  3
arial.ttf
  4

  0
ENDTAB
  0
TABLE
  2
VIEW
  5
73
330
0
100
AcDbSymbolTable
 70
     0
  0
ENDTAB
  0
TABLE
  2
UCS
  5
74
330
0
100
AcDbSymbolTable
 70
     0
  0
ENDTAB
  0
TABLE
  2
APPID
  5
75
330
0
100
AcDbSymbolTable
 70
     2
  0
APPID
  5
76
330
75
100
AcDbSymbolTableRecord
100
AcDbRegAppTableRecord
  2
ACAD
 70
     0
  0
APPID
  5
77
330
75
100
AcDbSymbolTableRecord
100
AcDbRegAppTableRecord
  2
ACADANNOTATIVE
 70
     0
  0
ENDTAB
  0
TABLE
  2
DIMSTYLE
  5
78
330
0
100
AcDbSymbolTable
 70
     2
  0
DIMSTYLE
105
79
330
78
100
AcDbSymbolTableRecord
100
AcDbDimStyleTableRecord
  2
STANDARD
 70
     0
  3

  4

  5

  6

  7

 40
0.0
 41
2.5
 42
0.625
 43
3.75
 44
1.25
 45
0.0
 46
0.0
 47
0.0
 48
0.0
140
2.5
141
2.5
142
0.0
143
0.03937007874016
144
1.0
145
0.0
146
1.0
147
0.625
 71
     0
 72
     0
 73
     0
 74
     0
 75
     0
 76
     0
 77
     1
 78
     8
170
     0
171
     3
172
     1
173
     0
174
     0
175
     0
176
     0
177
     0
178
     0
270
     2
271
     2
272
     2
273
     2
274
     3
340
71
275
     0
280
     0
281
     0
282
     0
283
     0
284
     8
285
     0
286
     0
287
     3
288
     0
  0
ENDTAB
  0
TABLE
  2
BLOCK_RECORD
  5
A01
330
0
100
AcDbSymbolTable
  70
5
  0
BLOCK_RECORD
  5
A02
330
A01
100
AcDbSymbolTableRecord
100
AcDbBlockTableRecord
  2
*MODEL_SPACE
  0
BLOCK_RECORD
  5
A03
330
A01
100
AcDbSymbolTableRecord
100
AcDbBlockTableRecord
  2
*PAPER_SPACE
  0
ENDTAB
  0
ENDSEC
  0
SECTION
  2
BLOCKS
  0
BLOCK
  5
A04
330
A02
100
AcDbEntity
  8
0
100
AcDbBlockBegin
  2
*MODEL_SPACE
 70
   0
 10
0
 20
0
 30
0
  3
*MODEL_SPACE
  1
 
  0
ENDBLK
  5
A05
330
A02
100
AcDbEntity
  8
0
100
AcDbBlockEnd
  0
BLOCK
  5
A06
330
A03
100
AcDbEntity
 67
1
  8
0
100
AcDbBlockBegin
  2
*PAPER_SPACE
 70
   0
 10
0
 20
0
 30
0
  3
*PAPER_SPACE
  1
 
  0
ENDBLK
  5
A07
330
A03
100
AcDbEntity
 67
    1
  8
0
100
AcDbBlockEnd
  0
ENDSEC
  0
SECTION
  2
ENTITIES
  0
ARC
  5
A08
330
A02
100
AcDbEntity
  8
Binder018
100
AcDbCircle
 10
-210.327
 20
-128.594
 30
-62.5
 40
10
100
AcDbArc
 50
115
 51
-171.454
  0
LINE
  5
A09
330
A02
100
AcDbEntity
  8
Binder018
100
AcDbLine
 10
-220.216
 20
-130.08
 30
-62.5
 11
-200.777
 21
-259.437
 31
-62.5
  0
ARC
  5
A0A
330
A02
100
AcDbEntity
  8
Binder018
100
AcDbCircle
 10
-190.888
 20
-257.951
 30
-62.5
 40
10
100
AcDbArc
 50
-171.454
 51
-7.30375
  0
LINE
  5
A0B
330
A02
100
AcDbEntity
  8
Binder018
100
AcDbLine
 10
-180.969
 20
-259.222
 30
-62.5
 11
-175.193
 21
-214.157
 31
-62.5
  0
ARC
  5
A0C
330
A02
100
AcDbEntity
  8
Binder018
100
AcDbCircle
 10
-160.315
 20
-216.064
 30
-62.5
 40
15
100
AcDbArc
 50
70.8486
 51
172.696
  0
LINE
  5
A0D
330
A02
100
AcDbEntity
  8
Binder018
100
AcDbLine
 10
-155.394
 20
-201.895
 30
-62.5
 11
-91.4067
 21
-224.116
 31
-62.5
  0
ARC
  5
A0E
330
A02
100
AcDbEntity
  8
Binder018
100
AcDbCircle
 10
-88.1261
 20
-214.67
 30
-62.5
 40
10
100
AcDbArc
 50
-109.151
 51
-59.7058
  0
ARC
  5
A0F
330
A02
100
AcDbEntity
  8
Binder018
100
AcDbCircle
 10
-78.0372
 20
-231.939
 30
-62.5
 40
10
100
AcDbArc
 50
70.8486
 51
120.294
  0
LINE
  5
A10
330
A02
100
AcDbEntity
  8
Binder018
100
AcDbLine
 10
-74.7566
 20
-222.492
 30
-62.5
 11
-41.8786
 21
-233.91
 31
-62.5
  0
ARC
  5
A11
330
A02
100
AcDbEntity
  8
Binder018
100
AcDbCircle
 10
-45.1593
 20
-243.357
 30
-62.5
 40
10
100
AcDbArc
 50
21.403
 51
70.8486
  0
ARC
  5
A12
330
A02
100
AcDbEntity
  8
Binder018
100
AcDbCircle
 10
-26.5385
 20
-236.058
 30
-62.5
 40
10
100
AcDbArc
 50
-158.597
 51
-109.151
  0
LINE
  5
A13
330
A02
100
AcDbEntity
  8
Binder018
100
AcDbLine
 10
-29.8192
 20
-245.505
 30
-62.5
 11
-10.6301
 21
-252.169
 31
-62.5
  0
ARC
  5
A14
330
A02
100
AcDbEntity
  8
Binder018
100
AcDbCircle
 10
-3.54977e-11
 20
-260.969
 30
-62.5
 40
13.8
100
AcDbArc
 50
-21.2427
 51
140.381
  0
ARC
  5
A15
330
A02
100
AcDbEntity
  8
Binder018
100
AcDbCircle
 10
0.108335
 20
-264.885
 30
-62.5
 40
12.8
100
AcDbArc
 50
-34.5775
 51
-4.85827
  0
LINE
  5
A16
330
A02
100
AcDbEntity
  8
Binder018
100
AcDbLine
 10
10.6473
 20
-272.149
 30
-62.5
 11
12.308
 21
-273.264
 31
-62.5
  0
ARC
  5
A17
330
A02
100
AcDbEntity
  8
Binder018
100
AcDbCircle
 10
15.0724
 20
-269.145
 30
-62.5
 40
4.96049
100
AcDbArc
 50
-123.869
 51
-49.4713
  0
LINE
  5
A18
330
A02
100
AcDbEntity
  8
Binder018
100
AcDbLine
 10
18.2959
 20
-272.915
 30
-62.5
 11
133.35
 21
-174.55
 31
-62.5
  0
LINE
  5
A19
330
A02
100
AcDbEntity
  8
Binder018
100
AcDbLine
 10
133.35
 20
-174.55
 30
-62.5
 11
133.35
 21
-169.55
 31
-62.5
  0
LINE
  5
A1A
330
A02
100
AcDbEntity
  8
Binder018
100
AcDbLine
 10
133.35
 20
-169.55
 30
-62.5
 11
-135.35
 21
-169.55
 31
-62.5
  0
LINE
  5
A1B
330
A02
100
AcDbEntity
  8
Binder018
100
AcDbLine
 10
-135.35
 20
-169.55
 30
-62.5
 11
-135.35
 21
-131.9
 31
-62.5
  0
ARC
  5
A1C
330
A02
100
AcDbEntity
  8
Binder018
100
AcDbCircle
 10
-164.65
 20
-131.9
 30
-62.5
 40
29.3
100
AcDbArc
 50
0
 51
115
  0
LINE
  5
A1D
330
A02
100
AcDbEntity
  8
Binder018
100
AcDbLine
 10
-178.301
 20
-102.626
 30
-62.5
 11
-177.033
 21
-105.345
 31
-62.5
  0
LINE
  5
A1E
330
A02
100
AcDbEntity
  8
Binder018
100
AcDbLine
 10
-214.553
 20
-119.531
 30
-62.5
 11
-178.301
 21
-102.626
 31
-62.5
  0
CIRCLE
  5
A1F
330
A02
100
AcDbEntity
  8
Binder018
100
AcDbCircle
 10
-164.65
 20
-131.9
 40
12.8
  0
ENDSEC
  0
SECTION
  2
OBJECTS
  0
DICTIONARY
  5
F000
330
0
100
AcDbDictionary
  3
ACAD_GROUP
350
F001
  0
DICTIONARY
  5
F001
330
F000
100
AcDbDictionary
  0
ENDSEC
  0
EOF