999
"DXF R12 Output" (www.mydxf.blogspot.com)
 0 
SECTION
 2 
HEADER
 9 
$ACADVER
 1 
AC1009
 9 
$EXTMIN
 10 
 0 
 20 
 0 
 9 
$EXTMAX
 10 
 8.5 
 20 
 11 
 0 
ENDSEC
 0 
SECTION
 2 
ENTITIES
0
LINE
8
Layer 1
10
0.846666
20
84.666700
11
-0.846666
21
82.973300
0
LINE
8
Layer 1
10
0.000000
20
85.231100
11
0.000000
21
82.408900
0
LINE
8
Layer 1
10
2.257780
20
82.691100
11
1.128890
21
81.562210
0
LINE
8
Layer 1
10
1.693330
20
83.255600
11
0.564440
21
82.126710
0
LINE
8
Layer 1
10
1.128890
20
83.820000
11
0.000000
21
82.691110
0
LINE
8
Binder009
10
-34.506600
20
-263.806000
11
-34.758534
21
-259.842448
0
LINE
8
Binder009
10
-34.758534
20
-259.842448
11
-35.499476
21
-255.988797
0
LINE
8
Binder009
10
-35.499476
20
-255.988797
11
-36.707162
21
-252.285627
0
LINE
8
Binder009
10
-36.707162
20
-252.285627
11
-38.359332
21
-248.773517
0
LINE
8
Binder009
10
-38.359332
20
-248.773517
11
-40.433722
21
-245.493046
0
LINE
8
Binder009
10
-40.433722
20
-245.493046
11
-42.908068
21
-242.484793
0
LINE
8
Binder009
10
-42.908068
20
-242.484793
11
-45.760110
21
-239.789338
0
LINE
8
Binder009
10
-45.760110
20
-239.789338
11
-48.967583
21
-237.447260
0
LINE
8
Binder009
10
-48.967583
20
-237.447260
11
-52.445773
21
-235.530125
0
LINE
8
Binder009
10
-52.445773
20
-235.530125
11
-56.094018
21
-234.084465
0
LINE
8
Binder009
10
-56.094018
20
-234.084465
11
-59.866130
21
-233.113308
0
LINE
8
Binder009
10
-59.866130
20
-233.113308
11
-63.715924
21
-232.619680
0
LINE
8
Binder009
10
-63.715924
20
-232.619680
11
-67.597214
21
-232.606608
0
LINE
8
Binder009
10
-67.597214
20
-232.606608
11
-71.463814
21
-233.077119
0
LINE
8
Binder009
10
-71.463814
20
-233.077119
11
-75.269538
21
-234.034241
0
LINE
8
Binder009
10
-75.269538
20
-234.034241
11
-78.968200
21
-235.481000
0
LINE
8
Binder009
10
-34.506700
20
-303.967000
11
-34.506700
21
-263.807000
0
LINE
8
Binder009
10
252.106000
20
-303.967000
11
-34.506700
21
-303.967000
0
LINE
8
Binder009
10
252.106000
20
-309.298000
11
252.106000
21
-303.967000
0
LINE
8
Binder009
10
129.382000
20
-414.223000
11
252.106000
21
-309.299000
0
LINE
8
Binder009
10
122.995000
20
-414.594000
11
124.570866
21
-415.311074
0
LINE
8
Binder009
10
124.570866
20
-415.311074
11
126.251092
21
-415.482900
0
LINE
8
Binder009
10
126.251092
20
-415.482900
11
127.900052
21
-415.117368
0
LINE
8
Binder009
10
127.900052
20
-415.117368
11
129.382120
21
-414.222370
0
LINE
8
Binder009
10
122.995000
20
-414.595000
11
121.223490
21
-413.404020
0
LINE
8
Binder009
10
121.224000
20
-413.405000
11
122.133280
21
-411.882994
0
LINE
8
Binder009
10
122.133280
20
-411.882994
11
122.835176
21
-410.262940
0
LINE
8
Binder009
10
122.835176
20
-410.262940
11
123.322154
21
-408.565858
0
LINE
8
Binder009
10
123.322154
20
-408.565858
11
123.586680
21
-406.812770
0
LINE
8
Binder009
10
123.586000
20
-406.813000
11
124.323583
21
-404.255784
0
LINE
8
Binder009
10
124.323583
20
-404.255784
11
124.586946
21
-401.671010
0
LINE
8
Binder009
10
124.586946
20
-401.671010
11
124.395970
21
-399.115888
0
LINE
8
Binder009
10
124.395970
20
-399.115888
11
123.770537
21
-396.647626
0
LINE
8
Binder009
10
123.770537
20
-396.647626
11
122.730527
21
-394.323436
0
LINE
8
Binder009
10
122.730527
20
-394.323436
11
121.295822
21
-392.200526
0
LINE
8
Binder009
10
121.295822
20
-392.200526
11
119.486303
21
-390.336107
0
LINE
8
Binder009
10
119.486303
20
-390.336107
11
117.321851
21
-388.787389
0
LINE
8
Binder009
10
117.321851
20
-388.787389
11
114.915215
21
-387.650955
0
LINE
8
Binder009
10
114.915215
20
-387.650955
11
112.405654
21
-386.978257
0
LINE
8
Binder009
10
112.405654
20
-386.978257
11
109.852820
21
-386.758803
0
LINE
8
Binder009
10
109.852820
20
-386.758803
11
107.316362
21
-386.982103
0
LINE
8
Binder009
10
107.316362
20
-386.982103
11
104.855931
21
-387.637663
0
LINE
8
Binder009
10
104.855931
20
-387.637663
11
102.531176
21
-388.714994
0
LINE
8
Binder009
10
102.531176
20
-388.714994
11
100.401749
21
-390.203603
0
LINE
8
Binder009
10
100.401749
20
-390.203603
11
98.527300
21
-392.093000
0
LINE
8
Binder009
10
78.059500
20
-384.985000
11
98.527900
21
-392.094170
0
LINE
8
Binder009
10
71.627800
20
-378.801000
11
72.698567
21
-380.847694
0
LINE
8
Binder009
10
72.698567
20
-380.847694
11
74.166064
21
-382.597683
0
LINE
8
Binder009
10
74.166064
20
-382.597683
11
75.972369
21
-383.995279
0
LINE
8
Binder009
10
75.972369
20
-383.995279
11
78.059560
21
-384.984790
0
LINE
8
Binder009
10
71.627700
20
-378.801000
11
70.556947
21
-376.754315
0
LINE
8
Binder009
10
70.556947
20
-376.754315
11
69.089467
21
-375.004329
0
LINE
8
Binder009
10
69.089467
20
-375.004329
11
67.283181
21
-373.606731
0
LINE
8
Binder009
10
67.283181
20
-373.606731
11
65.196010
21
-372.617210
0
LINE
8
Binder009
10
30.126400
20
-360.437000
11
65.196100
21
-372.618000
0
LINE
8
Binder009
10
30.126300
20
-360.438000
11
27.875093
21
-359.920857
0
LINE
8
Binder009
10
27.875093
20
-359.920857
11
25.591374
21
-359.898042
0
LINE
8
Binder009
10
25.591374
20
-359.898042
11
23.355113
21
-360.361756
0
LINE
8
Binder009
10
23.355113
20
-360.361756
11
21.246280
21
-361.304196
0
LINE
8
Binder009
10
12.366200
20
-362.171000
11
14.617402
21
-362.688123
0
LINE
8
Binder009
10
14.617402
20
-362.688123
11
16.901112
21
-362.710921
0
LINE
8
Binder009
10
16.901112
20
-362.710921
11
19.137360
21
-362.247196
0
LINE
8
Binder009
10
19.137360
20
-362.247196
11
21.246180
21
-361.304748
0
LINE
8
Binder009
10
-55.887000
20
-338.469000
11
12.366200
21
-362.170000
0
LINE
8
Binder009
10
-55.886900
20
-338.467000
11
-57.613595
21
-337.973908
0
LINE
8
Binder009
10
-57.613595
20
-337.973908
11
-59.368013
21
-337.679321
0
LINE
8
Binder009
10
-59.368013
20
-337.679321
11
-61.133796
21
-337.581431
0
LINE
8
Binder009
10
-61.133796
20
-337.581431
11
-62.894584
21
-337.678429
0
LINE
8
Binder009
10
-62.894584
20
-337.678429
11
-64.634021
21
-337.968505
0
LINE
8
Binder009
10
-64.634021
20
-337.968505
11
-66.335748
21
-338.449852
0
LINE
8
Binder009
10
-66.335748
20
-338.449852
11
-67.983408
21
-339.120659
0
LINE
8
Binder009
10
-67.983408
20
-339.120659
11
-69.560641
21
-339.979118
0
LINE
8
Binder009
10
-69.560641
20
-339.979118
11
-71.031864
21
-341.008738
0
LINE
8
Binder009
10
-71.031864
20
-341.008738
11
-72.366462
21
-342.185009
0
LINE
8
Binder009
10
-72.366462
20
-342.185009
11
-73.555526
21
-343.494091
0
LINE
8
Binder009
10
-73.555526
20
-343.494091
11
-74.590150
21
-344.922146
0
LINE
8
Binder009
10
-74.590150
20
-344.922146
11
-75.461426
21
-346.455333
0
LINE
8
Binder009
10
-75.461426
20
-346.455333
11
-76.160448
21
-348.079814
0
LINE
8
Binder009
10
-76.160448
20
-348.079814
11
-76.678309
21
-349.781749
0
LINE
8
Binder009
10
-76.678309
20
-349.781749
11
-77.006100
21
-351.547300
0
LINE
8
Binder009
10
-83.166900
20
-399.618000
11
-77.005710
21
-351.547100
0
LINE
8
Binder009
10
-104.295000
20
-399.846000
11
-103.827934
21
-401.749749
0
LINE
8
Binder009
10
-103.827934
20
-401.749749
11
-103.043452
21
-403.493492
0
LINE
8
Binder009
10
-103.043452
20
-403.493492
11
-101.976561
21
-405.047420
0
LINE
8
Binder009
10
-101.976561
20
-405.047420
11
-100.662266
21
-406.381725
0
LINE
8
Binder009
10
-100.662266
20
-406.381725
11
-99.135573
21
-407.466598
0
LINE
8
Binder009
10
-99.135573
20
-407.466598
11
-97.431488
21
-408.272232
0
LINE
8
Binder009
10
-97.431488
20
-408.272232
11
-95.585018
21
-408.768816
0
LINE
8
Binder009
10
-95.585018
20
-408.768816
11
-93.631167
21
-408.926544
0
LINE
8
Binder009
10
-93.631167
20
-408.926544
11
-91.681194
21
-408.726495
0
LINE
8
Binder009
10
-91.681194
20
-408.726495
11
-89.845923
21
-408.189997
0
LINE
8
Binder009
10
-89.845923
20
-408.189997
11
-88.159704
21
-407.347609
0
LINE
8
Binder009
10
-88.159704
20
-407.347609
11
-86.656890
21
-406.229893
0
LINE
8
Binder009
10
-86.656890
20
-406.229893
11
-85.371831
21
-404.867409
0
LINE
8
Binder009
10
-85.371831
20
-404.867409
11
-84.338878
21
-403.290717
0
LINE
8
Binder009
10
-84.338878
20
-403.290717
11
-83.592384
21
-401.530376
0
LINE
8
Binder009
10
-83.592384
20
-401.530376
11
-83.166700
21
-399.616949
0
LINE
8
Binder009
10
-125.030000
20
-261.865000
11
-104.295100
21
-399.846000
0
LINE
8
Binder009
10
-118.990000
20
-250.613000
11
-120.508466
21
-251.478371
0
LINE
8
Binder009
10
-120.508466
20
-251.478371
11
-121.840092
21
-252.556640
0
LINE
8
Binder009
10
-121.840092
20
-252.556640
11
-122.969237
21
-253.818670
0
LINE
8
Binder009
10
-122.969237
20
-253.818670
11
-123.880260
21
-255.235323
0
LINE
8
Binder009
10
-123.880260
20
-255.235323
11
-124.557519
21
-256.777460
0
LINE
8
Binder009
10
-124.557519
20
-256.777460
11
-124.985373
21
-258.415944
0
LINE
8
Binder009
10
-124.985373
20
-258.415944
11
-125.148180
21
-260.121637
0
LINE
8
Binder009
10
-125.148180
20
-260.121637
11
-125.030300
21
-261.865400
0
LINE
8
Binder009
10
-80.320900
20
-232.582000
11
-118.990000
21
-250.613000
0
LINE
8
Binder009
10
-78.968500
20
-235.480000
11
-80.320910
21
-232.581580
0
LINE
8
Binder009
10
-52.106600
20
-263.806000
11
-52.226668
21
-261.997489
0
LINE
8
Binder009
10
-52.226668
20
-261.997489
11
-52.579215
21
-260.243613
0
LINE
8
Binder009
10
-52.579215
20
-260.243613
11
-53.152754
21
-258.564268
0
LINE
8
Binder009
10
-53.152754
20
-258.564268
11
-53.935795
21
-256.979350
0
LINE
8
Binder009
10
-53.935795
20
-256.979350
11
-54.916853
21
-255.508757
0
LINE
8
Binder009
10
-54.916853
20
-255.508757
11
-56.084440
21
-254.172386
0
LINE
8
Binder009
10
-56.084440
20
-254.172386
11
-57.427068
21
-252.990133
0
LINE
8
Binder009
10
-57.427068
20
-252.990133
11
-58.933250
21
-251.981895
0
LINE
8
Binder009
10
-58.933250
20
-251.981895
11
-60.559500
21
-251.181622
0
LINE
8
Binder009
10
-60.559500
20
-251.181622
11
-62.254675
21
-250.609999
0
LINE
8
Binder009
10
-62.254675
20
-250.609999
11
-63.995800
21
-250.267025
0
LINE
8
Binder009
10
-63.995800
20
-250.267025
11
-65.759900
21
-250.152700
0
LINE
8
Binder009
10
-65.759900
20
-250.152700
11
-67.524000
21
-250.267025
0
LINE
8
Binder009
10
-67.524000
20
-250.267025
11
-69.265125
21
-250.609999
0
LINE
8
Binder009
10
-69.265125
20
-250.609999
11
-70.960300
21
-251.181622
0
LINE
8
Binder009
10
-70.960300
20
-251.181622
11
-72.586550
21
-251.981895
0
LINE
8
Binder009
10
-72.586550
20
-251.981895
11
-74.092732
21
-252.990133
0
LINE
8
Binder009
10
-74.092732
20
-252.990133
11
-75.435360
21
-254.172386
0
LINE
8
Binder009
10
-75.435360
20
-254.172386
11
-76.602947
21
-255.508757
0
LINE
8
Binder009
10
-76.602947
20
-255.508757
11
-77.584005
21
-256.979350
0
LINE
8
Binder009
10
-77.584005
20
-256.979350
11
-78.367046
21
-258.564268
0
LINE
8
Binder009
10
-78.367046
20
-258.564268
11
-78.940585
21
-260.243613
0
LINE
8
Binder009
10
-78.940585
20
-260.243613
11
-79.293132
21
-261.997489
0
LINE
8
Binder009
10
-79.293132
20
-261.997489
11
-79.413200
21
-263.806000
0
LINE
8
Binder009
10
-79.413200
20
-263.806000
11
-79.293132
21
-265.614511
0
LINE
8
Binder009
10
-79.293132
20
-265.614511
11
-78.940585
21
-267.368387
0
LINE
8
Binder009
10
-78.940585
20
-267.368387
11
-78.367047
21
-269.047733
0
LINE
8
Binder009
10
-78.367047
20
-269.047733
11
-77.584005
21
-270.632650
0
LINE
8
Binder009
10
-77.584005
20
-270.632650
11
-76.602947
21
-272.103243
0
LINE
8
Binder009
10
-76.602947
20
-272.103243
11
-75.435360
21
-273.439614
0
LINE
8
Binder009
10
-75.435360
20
-273.439614
11
-74.092732
21
-274.621867
0
LINE
8
Binder009
10
-74.092732
20
-274.621867
11
-72.586550
21
-275.630105
0
LINE
8
Binder009
10
-72.586550
20
-275.630105
11
-70.960300
21
-276.430378
0
LINE
8
Binder009
10
-70.960300
20
-276.430378
11
-69.265125
21
-277.002002
0
LINE
8
Binder009
10
-69.265125
20
-277.002002
11
-67.524000
21
-277.344976
0
LINE
8
Binder009
10
-67.524000
20
-277.344976
11
-65.759900
21
-277.459300
0
LINE
8
Binder009
10
-65.759900
20
-277.459300
11
-63.995800
21
-277.344976
0
LINE
8
Binder009
10
-63.995800
20
-277.344976
11
-62.254675
21
-277.002002
0
LINE
8
Binder009
10
-62.254675
20
-277.002002
11
-60.559500
21
-276.430378
0
LINE
8
Binder009
10
-60.559500
20
-276.430378
11
-58.933250
21
-275.630105
0
LINE
8
Binder009
10
-58.933250
20
-275.630105
11
-57.427068
21
-274.621867
0
LINE
8
Binder009
10
-57.427068
20
-274.621867
11
-56.084440
21
-273.439614
0
LINE
8
Binder009
10
-56.084440
20
-273.439614
11
-54.916853
21
-272.103243
0
LINE
8
Binder009
10
-54.916853
20
-272.103243
11
-53.935795
21
-270.632650
0
LINE
8
Binder009
10
-53.935795
20
-270.632650
11
-53.152753
21
-269.047733
0
LINE
8
Binder009
10
-53.152753
20
-269.047733
11
-52.579215
21
-267.368387
0
LINE
8
Binder009
10
-52.579215
20
-267.368387
11
-52.226668
21
-265.614511
0
LINE
8
Binder009
10
-52.226668
20
-265.614511
11
-52.106600
21
-263.806000
0
LINE
8
Binder009
10
-52.106600
20
-263.806000
11
-52.106600
21
-263.806000
 0 
ENDSEC
 0 
EOF