  0
SECTION
  2
HEADER
  9
$ACADVER
  1
AC1009
  9
$INSBASE
 10
0.0
 20
0.0
 30
0.0
  9
$EXTMIN
 10
0.0
 20
0.0
 30
0.0
  9
$EXTMAX
 10
0.0
 20
0.0
 30
0.0
  0
ENDSEC
  0
SECTION
  2
TABLES
  0
TABLE
  2
VPORT
 70
0
  0
ENDTAB
  0
TABLE
  2
LTYPE
 70
1
  0
LTYPE
  2
CONTINUOUS
 70
0
  3
Solid line
 72
65
 73
0
 40
0.0
  0
ENDTAB
  0
TABLE
  2
LAYER
 70
1
  0
LAYER
  2
0
 70
64
 62
7
  6
continuous
  0
ENDTAB
  0
TABLE
  2
STYLE
 70
1
  0
STYLE
  2
STANDARD
 70
0
 40
0
 41
1.0
 50
0.0
 71
0
 42
1
 3
ARIAL.TTF
 4

  0
ENDTAB
  0
TABLE
  2
VIEW
 70
0
  0
ENDTAB
  0
ENDSEC
  0
SECTION
  2
BLOCKS
  0
BLOCK
  8
0
  2
SKETCH001
 70
0
 10
0.0
 20
0.0
 30
0.0
  3
SKETCH001
  0
POLYLINE
  8
0
 62
7
 70
0
 66
1
 10
0.0
 20
0.0
 30
0.0
  0
VERTEX
  8
0
 10
12.799999999999951
 20
182.34999999999997
 30
0.0
  0
VERTEX
  8
0
 10
11.935644536375706
 20
177.7261066728044
 30
0.0
  0
VERTEX
  8
0
 10
9.459314140424398
 20
173.72669576132404
 30
0.0
  0
VERTEX
  8
0
 10
5.7054509539396685
 20
170.89190987065518
 30
0.0
  0
VERTEX
  8
0
 10
1.181035001130263
 20
169.60460254342354
 30
0.0
  0
VERTEX
  8
0
 10
-3.502886272922649
 20
170.0386317673879
 30
0.0
  0
VERTEX
  8
0
 10
-7.713723345654452
 20
172.1353794908129
 30
0.0
  0
VERTEX
  8
0
 10
-10.88277933733902
 20
175.61166831516982
 30
0.0
  0
VERTEX
  8
0
 10
-12.582055675953894
 20
179.99800617194788
 30
0.0
  0
VERTEX
  8
0
 10
-12.582055675953894
 20
184.70199382805205
 30
0.0
  0
VERTEX
  8
0
 10
-10.882779337339016
 20
189.08833168483014
 30
0.0
  0
VERTEX
  8
0
 10
-7.713723345654456
 20
192.56462050918702
 30
0.0
  0
VERTEX
  8
0
 10
-3.502886272922644
 20
194.66136823261206
 30
0.0
  0
VERTEX
  8
0
 10
1.1810350011302506
 20
195.0953974565764
 30
0.0
  0
VERTEX
  8
0
 10
5.705450953939667
 20
193.80809012934475
 30
0.0
  0
VERTEX
  8
0
 10
9.459314140424405
 20
190.9733042386759
 30
0.0
  0
VERTEX
  8
0
 10
11.935644536375706
 20
186.97389332719553
 30
0.0
  0
VERTEX
  8
0
 10
12.799999999999951
 20
182.34999999999997
 30
0.0
  0
SEQEND
  8
0
  0
LINE
  8
0
 62
7
 10
-119.64999999999955
 20
6.349999999999985
 30
0.0
 11
119.64999999999955
 21
6.349999999999985
 31
0.0
  0
LINE
  8
0
 62
7
 10
119.64999999999955
 20
6.349999999999985
 30
0.0
 11
119.64999999999955
 21
56.34999999999999
 31
0.0
  0
LINE
  8
0
 62
7
 10
119.64999999999955
 20
56.34999999999999
 30
0.0
 11
18.450414286943783
 21
195.74485769391137
 31
0.0
  0
POLYLINE
  8
0
 62
7
 70
0
 66
1
 10
0.0
 20
0.0
 30
0.0
  0
VERTEX
  8
0
 10
-18.450414286943804
 20
195.74485769391137
 30
0.0
  0
VERTEX
  8
0
 10
-15.2609248757518
 20
199.28942655276904
 30
0.0
  0
VERTEX
  8
0
 10
-11.403951688589459
 20
202.09309717051292
 30
0.0
  0
VERTEX
  8
0
 10
-7.048191383604549
 20
204.03324233642377
 30
0.0
  0
VERTEX
  8
0
 10
-2.384156617091751
 20
205.02500379768824
 30
0.0
  0
VERTEX
  8
0
 10
2.3841566170917465
 20
205.02500379768824
 30
0.0
  0
VERTEX
  8
0
 10
7.048191383604544
 20
204.03324233642377
 30
0.0
  0
VERTEX
  8
0
 10
11.403951688589451
 20
202.09309717051292
 30
0.0
  0
VERTEX
  8
0
 10
15.260924875751794
 20
199.28942655276904
 30
0.0
  0
VERTEX
  8
0
 10
18.4504142869438
 20
195.74485769391137
 30
0.0
  0
SEQEND
  8
0
  0
LINE
  8
0
 62
7
 10
-18.4504142869438
 20
195.74485769391137
 30
0.0
 11
-119.64999999999957
 21
56.349999999999994
 31
0.0
  0
LINE
  8
0
 62
7
 10
-119.64999999999955
 20
6.349999999999985
 30
0.0
 11
-119.64999999999957
 21
56.349999999999994
 31
0.0
  0
ENDBLK
  0
ENDSEC
  0
SECTION
  2
ENTITIES
  0
INSERT
  2
SKETCH001
  8
0
 62
7
 10
0.0
 20
0.0
 30
0.0
  0
ENDSEC
  0
EOF
